<?xml version="1.0" encoding="utf-8"?>
<!-- Generator: Adobe Illustrator 15.0.2, SVG Export Plug-In . SVG Version: 6.00 Build 0)  -->
<!DOCTYPE svg PUBLIC "-//W3C//DTD SVG 1.1//EN" "http://www.w3.org/Graphics/SVG/1.1/DTD/svg11.dtd">
<svg version="1.1" id="Layer_1" xmlns="http://www.w3.org/2000/svg" xmlns:xlink="http://www.w3.org/1999/xlink" x="0px" y="0px"
	 width="28.801px" height="28.8px" viewBox="64.9 0 28.801 28.8" enable-background="new 64.9 0 28.801 28.8" xml:space="preserve">
<path fill="#777777" d="M79.298,28.798c7.953,0,14.4-6.445,14.4-14.399C93.699,6.447,87.251,0,79.298,0
	C71.347-0.002,64.9,6.445,64.9,14.398S71.347,28.798,79.298,28.798"/>
<path fill="#FFFFFF" d="M75.825,11.961h1.489v-1.446c0-0.64,0.016-1.622,0.479-2.231C78.281,7.638,78.951,7.2,80.103,7.2
	c1.879,0,2.668,0.268,2.668,0.268L82.4,9.672c0,0-0.621-0.18-1.199-0.18c-0.58,0-1.098,0.207-1.098,0.785v1.682h2.375l-0.166,2.154
	h-2.209v7.486h-2.791v-7.484h-1.489v-2.154H75.825z"/>
</svg>
