<?xml version="1.0" encoding="utf-8"?>
<!-- Generator: Adobe Illustrator 15.0.2, SVG Export Plug-In . SVG Version: 6.00 Build 0)  -->
<!DOCTYPE svg PUBLIC "-//W3C//DTD SVG 1.1//EN" "http://www.w3.org/Graphics/SVG/1.1/DTD/svg11.dtd">
<svg version="1.1" id="Layer_1" xmlns="http://www.w3.org/2000/svg" xmlns:xlink="http://www.w3.org/1999/xlink" x="0px" y="0px"
	 width="28.8px" height="28.8px" viewBox="0 0 28.8 28.8" enable-background="new 0 0 28.8 28.8" xml:space="preserve">
<path fill="#777777" d="M14.4,28.798c7.954,0,14.4-6.447,14.4-14.4C28.8,6.447,22.354,0,14.4,0C6.447,0,0,6.447,0,14.399
	S6.447,28.798,14.4,28.798"/>
<path fill="#FFFFFF" d="M10.37,20.419H7.563v-8.981h2.807V20.419z M8.895,10.314h-0.02c-1.016,0-1.674-0.688-1.674-1.557
	c0-0.887,0.678-1.561,1.714-1.561s1.672,0.672,1.693,1.559C10.606,9.625,9.949,10.314,8.895,10.314z M21.6,20.419h-3.183v-4.646
	c0-1.216-0.498-2.046-1.594-2.046c-0.837,0-1.302,0.561-1.52,1.102c-0.081,0.193-0.069,0.459-0.069,0.732v4.858h-3.153
	c0,0,0.041-8.232,0-8.979h3.153v1.41c0.187-0.616,1.193-1.497,2.804-1.497c1.994,0,3.562,1.293,3.562,4.075V20.419z"/>
</svg>
