<?xml version="1.0" encoding="utf-8"?>
<!-- Generator: Adobe Illustrator 15.0.2, SVG Export Plug-In . SVG Version: 6.00 Build 0)  -->
<!DOCTYPE svg PUBLIC "-//W3C//DTD SVG 1.1//EN" "http://www.w3.org/Graphics/SVG/1.1/DTD/svg11.dtd">
<svg version="1.1" id="Layer_1" xmlns="http://www.w3.org/2000/svg" xmlns:xlink="http://www.w3.org/1999/xlink" x="0px" y="0px"
	 width="500px" height="800px" viewBox="0 0 500 800" enable-background="new 0 0 500 800" xml:space="preserve">
<rect fill="#34313C" width="500" height="800"/>
<circle fill="#34313C" stroke="#E7B43A" stroke-width="12" stroke-miterlimit="10" cx="102.183" cy="104.236" r="59.868"/>
<circle fill="#34313C" stroke="#E7B43A" stroke-width="12" stroke-miterlimit="10" cx="104.183" cy="311.236" r="59.869"/>
<circle fill="#34313C" stroke="#E7B43A" stroke-width="12" stroke-miterlimit="10" cx="107.183" cy="520.236" r="59.869"/>
<g id="Small">
	<g>
		<path fill-rule="evenodd" clip-rule="evenodd" fill="#FFFFFF" d="M102.04,69.932c-12.369,0-22.396,10.066-22.396,22.48
			c0,0.267,0.008,0.537,0.02,0.811c0.085,2.361,0.528,4.63,1.282,6.75c4.778,15.767,21.094,36.332,21.094,36.332
			s16.314-20.564,21.093-36.329c0.755-2.123,1.197-4.392,1.281-6.753c0.014-0.274,0.021-0.544,0.021-0.811
			C124.436,79.998,114.408,69.932,102.04,69.932z M102.04,103.423c-6.058,0-10.969-4.93-10.969-11.011
			c0-6.08,4.911-11.009,10.969-11.009c6.059,0,10.968,4.93,10.968,11.009C113.008,98.493,108.098,103.423,102.04,103.423z"/>
	</g>
</g>
<path fill="#FFFFFF" d="M126.879,280.437c-19.819-0.659-36.051,6.651-36.051,6.651l-0.012,37.098
	c-2.019-0.801-4.472-0.992-6.965-0.385c-5.373,1.305-8.892,5.809-7.859,10.061c1.033,4.252,6.226,6.64,11.599,5.335
	c5.066-1.231,8.482-5.305,7.991-9.33l0,0v-27.719c0,0,11.479-4.013,26.368-5.02v20.616l0,0c-1.996-0.764-4.403-0.938-6.85-0.343
	c-5.373,1.305-8.892,5.81-7.859,10.062c1.032,4.25,6.226,6.639,11.598,5.334c4.692-1.14,7.97-4.718,8.039-8.438l0.001,0.001
	C126.879,324.36,126.879,287.966,126.879,280.437z"/>
<g>
	<path fill="#FFFFFF" d="M138.129,499.33l-10.176-10.176l-1.863-1.864l-1.865,1.864l-47.46,47.461l-1.864,1.863l1.864,1.865
		l10.176,10.174l1.864,1.866l1.863-1.866l47.461-47.458l1.863-1.864L138.129,499.33z M88.805,548.655l-10.176-10.177l2.951-2.951
		l4.272,4.273l1.165-1.166l-4.273-4.271l1.506-1.506l2.292,2.291l1.165-1.165l-2.292-2.292l1.505-1.505l4.272,4.272l1.165-1.165
		l-4.271-4.272l1.505-1.505l2.291,2.292l1.164-1.166l-2.291-2.292l1.506-1.505l4.271,4.271l1.166-1.164l-4.272-4.271l1.505-1.504
		l2.291,2.291l1.165-1.166l-2.291-2.291l1.505-1.506l4.272,4.273l1.166-1.166l-4.273-4.272l1.505-1.504l2.292,2.292l1.164-1.166
		l-2.291-2.292l1.506-1.505l4.272,4.271l1.165-1.164l-4.273-4.272l1.505-1.505l2.293,2.292l1.165-1.165l-2.292-2.291l1.506-1.506
		l4.271,4.273l1.165-1.166l-4.271-4.272l1.505-1.505l2.291,2.291l1.165-1.164l-2.291-2.293l1.506-1.505l4.271,4.272l1.166-1.166
		l-4.273-4.271l11.303-11.302l10.174,10.176L88.805,548.655z"/>
	<path fill="#FFFFFF" d="M123.468,503.467c1.461,1.461,3.84,1.461,5.3,0c1.463-1.463,1.463-3.84,0-5.301
		c-1.46-1.462-3.839-1.463-5.3,0C122.006,499.626,122.006,502.005,123.468,503.467z M127.37,499.563
		c0.692,0.692,0.692,1.813,0,2.505c-0.691,0.691-1.812,0.693-2.504,0c-0.692-0.691-0.692-1.812,0-2.505
		C125.557,498.872,126.679,498.872,127.37,499.563z"/>
</g>
<circle fill="#34313C" stroke="#E7B43A" stroke-width="12" stroke-miterlimit="10" cx="258.183" cy="682.236" r="59.869"/>
<path fill="#FFFFFF" d="M286.617,696.012c-4.875-5.064-5.938-12.559-6.965-19.805c-1.523-10.74-3.24-22.812-18.551-24.391v-1.946
	c0-1.951-1.583-3.534-3.534-3.534c-1.952,0-3.534,1.583-3.534,3.534v1.948c-15.185,1.59-16.888,13.656-18.397,24.393
	c-1.02,7.249-2.073,14.743-6.909,19.811c-0.976,1.023-1.249,2.529-0.692,3.83s1.835,2.144,3.25,2.144h14.805
	c0.079,6.265,5.194,11.339,11.479,11.339s11.397-5.074,11.479-11.339h15.025c1.417,0,2.697-0.846,3.253-2.151
	C287.878,698.541,287.601,697.032,286.617,696.012z M257.567,706.267c-2.386,0-4.324-1.903-4.402-4.271h4.402h4.401
	C261.892,704.363,259.953,706.267,257.567,706.267z M257.567,694.928h-19.514c2.877-5.609,3.768-11.951,4.582-17.733
	c1.755-12.487,3.123-18.489,14.932-18.489c11.936,0,13.316,6.003,15.088,18.494c0.819,5.779,1.717,12.12,4.616,17.729H257.567z"/>
<rect x="98.579" y="158.842" fill="#E7B43A" width="12" height="94.158"/>
<rect x="98.579" y="371.842" fill="#E7B43A" width="12" height="94.158"/>
<text transform="matrix(1 0 0 1 210.8916 97.2632)"><tspan x="0" y="0" fill="#FFFFFF" stroke="#FFFFFF" stroke-miterlimit="10" font-family="'ArialMT'" font-size="25">Use Button to Set End</tspan><tspan x="77.832" y="30" fill="#FFFFFF" stroke="#FFFFFF" stroke-miterlimit="10" font-family="'ArialMT'" font-size="25">Address</tspan></text>
<text transform="matrix(1 0 0 1 201.4912 304.2632)"><tspan x="0" y="0" fill="#FFFFFF" stroke="#FFFFFF" stroke-miterlimit="10" font-family="'ArialMT'" font-size="25">Use Button to Set Alarm</tspan><tspan x="105.597" y="30" fill="#FFFFFF" stroke="#FFFFFF" stroke-miterlimit="10" font-family="'ArialMT'" font-size="25">Tone</tspan></text>
<text transform="matrix(1 0 0 1 205.8916 516.2637)"><tspan x="0" y="0" fill="#FFFFFF" stroke="#FFFFFF" stroke-miterlimit="10" font-family="'ArialMT'" font-size="25">Use Button to Set End</tspan><tspan x="75.055" y="30" fill="#FFFFFF" stroke="#FFFFFF" stroke-miterlimit="10" font-family="'ArialMT'" font-size="25">Distance</tspan></text>
</svg>
