<?xml version="1.0" encoding="utf-8"?>
<!-- Generator: Adobe Illustrator 15.0.2, SVG Export Plug-In . SVG Version: 6.00 Build 0)  -->
<!DOCTYPE svg PUBLIC "-//W3C//DTD SVG 1.1//EN" "http://www.w3.org/Graphics/SVG/1.1/DTD/svg11.dtd">
<svg version="1.1" id="Layer_1" xmlns="http://www.w3.org/2000/svg" xmlns:xlink="http://www.w3.org/1999/xlink" x="0px" y="0px"
	 width="480px" height="800px" viewBox="0 0 480 800" enable-background="new 0 0 480 800" xml:space="preserve">
<rect fill="#34313C" width="480" height="800"/>
<text transform="matrix(1 0 0 1 128.8892 169.6665)"><tspan x="0" y="0" fill="#E7B43A" font-family="'GeosansLight'" font-size="58">Wake Up!</tspan><tspan x="2.233" y="139.2" fill="#E7B43A" font-family="'GeosansLight'" font-size="58">You Have</tspan><tspan x="-45.587" y="208.8" fill="#E7B43A" font-family="'GeosansLight'" font-size="58">Reached Your</tspan><tspan x="-26.853" y="278.4" fill="#E7B43A" font-family="'GeosansLight'" font-size="58">Destination! </tspan></text>
<g>
	<path fill="#0B050C" d="M220.412,637.233c0,5.5-4.5,10-10,10H38.631c-5.5,0-10-4.5-10-10V591.48c0-5.5,4.5-10,10-10h171.781
		c5.5,0,10,4.5,10,10V637.233z"/>
</g>
<g>
	<path fill="#0B050C" d="M449.412,635.233c0,5.5-4.5,10-10,10H267.631c-5.5,0-10-4.5-10-10V589.48c0-5.5,4.5-10,10-10h171.781
		c5.5,0,10,4.5,10,10V635.233z"/>
</g>
<text transform="matrix(1 0 0 1 50.2261 619.2637)" fill="#DBAD3E" stroke="#DBAD3E" stroke-miterlimit="10" font-family="'ArialMT'" font-size="22">Set New Alarm</text>
<text transform="matrix(1 0 0 1 272.041 619.2637)" fill="#DBAD3E" stroke="#DBAD3E" stroke-miterlimit="10" font-family="'ArialMT'" font-size="22">Stop Alarm Tone</text>
</svg>
