<?xml version="1.0" encoding="utf-8"?>
<!-- Generator: Adobe Illustrator 15.0.2, SVG Export Plug-In . SVG Version: 6.00 Build 0)  -->
<!DOCTYPE svg PUBLIC "-//W3C//DTD SVG 1.1//EN" "http://www.w3.org/Graphics/SVG/1.1/DTD/svg11.dtd">
<svg version="1.1" id="Layer_1" xmlns="http://www.w3.org/2000/svg" xmlns:xlink="http://www.w3.org/1999/xlink" x="0px" y="0px"
	 width="305px" height="490px" viewBox="0 0 305 490" enable-background="new 0 0 305 490" xml:space="preserve">
<rect fill="#343439" width="304.499" height="489.195"/>
<path fill="#D3AB05" d="M245.168,410.984c0,6.627-5.373,12-12,12H69.381c-6.627,0-12-5.373-12-12V393c0-6.627,5.372-12,12-12
	h163.787c6.627,0,12,5.373,12,12V410.984z"/>
<path fill="#E8C11A" d="M245.168,406.984c0,6.627-5.373,12-12,12H69.381c-6.628,0-12-5.373-12-12V389c0-6.627,5.372-12,12-12
	h163.787c6.627,0,12,5.373,12,12V406.984z"/>
<text transform="matrix(1 0 0 1 111.1411 404.2139)" fill="#343439" stroke="#343439" stroke-miterlimit="10" font-family="'GeosansLight'" font-size="17">SET ALARM</text>
<text transform="matrix(1 0 0 1 81.3179 76.7256)" fill="#E8C11A" font-family="'GeosansLight'" font-size="28.7336">LOCALARM</text>
<g>
	<g>
		<circle cx="151.896" cy="92.897" r="4.013"/>
	</g>
	<g>
		<path d="M151.896,101.294c-0.307,0-0.556-0.249-0.556-0.556v-2.867c0-0.307,0.249-0.556,0.556-0.556
			c0.308,0,0.557,0.249,0.557,0.556v2.867C152.453,101.045,152.204,101.294,151.896,101.294z"/>
	</g>
	<g>
		<path d="M151.896,88.479c-0.307,0-0.556-0.249-0.556-0.556v-2.867c0-0.307,0.249-0.556,0.556-0.556
			c0.308,0,0.557,0.249,0.557,0.556v2.867C152.453,88.229,152.204,88.479,151.896,88.479z"/>
	</g>
	<g>
		<path d="M146.923,93.453h-2.867c-0.307,0-0.556-0.249-0.556-0.556s0.249-0.556,0.556-0.556h2.867c0.307,0,0.556,0.249,0.556,0.556
			C147.479,93.204,147.229,93.453,146.923,93.453z"/>
	</g>
	<g>
		<path d="M159.738,93.453h-2.867c-0.307,0-0.556-0.249-0.556-0.556s0.248-0.556,0.556-0.556h2.867c0.307,0,0.556,0.249,0.556,0.556
			C160.294,93.204,160.045,93.453,159.738,93.453z"/>
	</g>
	<g>
		<path d="M145.726,99.624c-0.142,0-0.284-0.054-0.393-0.163c-0.217-0.217-0.217-0.569,0-0.786l2.256-2.257
			c0.217-0.217,0.569-0.217,0.786,0c0.217,0.217,0.217,0.569,0,0.786l-2.257,2.256C146.01,99.569,145.869,99.624,145.726,99.624z"/>
	</g>
	<g>
		<path d="M155.812,89.538c-0.142,0-0.284-0.054-0.393-0.163c-0.217-0.217-0.217-0.568,0-0.786l2.256-2.256
			c0.218-0.217,0.569-0.217,0.786,0c0.217,0.217,0.217,0.568,0,0.786l-2.257,2.256C156.096,89.483,155.954,89.538,155.812,89.538z"
			/>
	</g>
	<g>
		<path d="M147.982,89.538c-0.142,0-0.284-0.055-0.393-0.163l-2.256-2.257c-0.217-0.217-0.217-0.569,0-0.786
			c0.217-0.217,0.569-0.217,0.786,0l2.257,2.257c0.217,0.217,0.217,0.568,0,0.786C148.267,89.483,148.124,89.538,147.982,89.538z"/>
	</g>
	<g>
		<path d="M158.067,99.624c-0.142,0-0.283-0.054-0.393-0.163l-2.256-2.256c-0.217-0.217-0.217-0.569,0-0.786
			c0.217-0.217,0.568-0.217,0.785,0l2.257,2.257c0.217,0.217,0.217,0.569,0,0.786C158.353,99.569,158.21,99.624,158.067,99.624z"/>
	</g>
</g>
<path d="M91.858,98.971c-3.465,0-6.273-2.809-6.273-6.272c0-3.465,2.809-6.273,6.273-6.273c0.394,0,0.779,0.041,1.153,0.111
	c-0.069,0.301-0.108,0.613-0.108,0.935c0,2.31,1.872,4.183,4.182,4.183c0.321,0,0.633-0.04,0.936-0.109
	c0.068,0.375,0.11,0.76,0.11,1.155C98.131,96.162,95.322,98.971,91.858,98.971z M90.923,88.625
	c-1.859,0.425-3.247,2.085-3.247,4.074c0,2.309,1.872,4.182,4.182,4.182c1.987,0,3.648-1.388,4.072-3.247
	C93.394,93.16,91.396,91.162,90.923,88.625z"/>
<path d="M210.493,86.5c-3.862,0-6.993,3.13-6.993,6.993c0,3.862,3.131,6.993,6.993,6.993c3.861,0,6.993-3.13,6.993-6.993
	C217.486,89.63,214.354,86.5,210.493,86.5z M210.493,98.738c-2.897,0-5.245-2.348-5.245-5.245c0-2.897,2.348-5.245,5.245-5.245
	c2.896,0,5.244,2.348,5.244,5.245C215.737,96.39,213.389,98.738,210.493,98.738z"/>
<g>
	<g>
		<path d="M153.536,202.694c-2.379,0-4.307,1.931-4.307,4.297v32.419h-31.398c-2.388,0-4.316,1.929-4.316,4.323
			c0,2.374,1.929,4.298,4.316,4.298h35.705c1.13,0,2.236-0.463,3.05-1.267c0.799-0.792,1.257-1.914,1.257-3.032v-36.742
			C157.843,204.625,155.918,202.694,153.536,202.694z"/>
		<path d="M215.923,240.836c0-10.11-2.404-19.643-6.576-28.146c1.921-0.639,3.651-1.635,5.08-3.059
			c6.705-6.752,4.265-20.052-5.453-29.713c-9.725-9.668-23.04-12.039-29.742-5.283c-1.827,1.838-2.961,4.176-3.464,6.79
			c-7.396-2.983-15.458-4.667-23.922-4.667c-8.193,0-15.993,1.592-23.199,4.395c-0.555-2.4-1.658-4.546-3.369-6.28
			c-6.71-6.744-20.024-4.372-29.748,5.295c-9.719,9.667-12.164,22.963-5.456,29.705c1.228,1.244,2.676,2.161,4.277,2.79
			c-4.177,8.512-6.587,18.046-6.587,28.173c0,21.053,10.198,39.677,25.871,51.354l-5.11,7.992
			c-2.567,4.009-1.398,9.334,2.615,11.897c1.44,0.922,3.04,1.357,4.631,1.357c2.852,0,5.619-1.4,7.267-3.97l5.703-8.913
			c7.176,2.777,14.95,4.363,23.106,4.363c8.587,0,16.764-1.717,24.252-4.782l6.125,9.601c1.647,2.555,4.428,3.959,7.272,3.959
			c1.588,0,3.196-0.434,4.635-1.355c4.004-2.562,5.173-7.896,2.608-11.904l-5.74-8.946
			C206.147,279.766,215.923,261.463,215.923,240.836z M151.843,287.688c-25.87-0.057-46.805-20.981-46.851-46.852
			c0.046-25.873,20.98-46.812,46.851-46.855c25.875,0.042,46.81,20.982,46.855,46.855
			C198.652,266.707,177.718,287.632,151.843,287.688z"/>
	</g>
	<path d="M98.144,164.075c-1.537-1.546-4.038-1.546-5.57,0l-12.826,12.816c-1.54,1.538-1.54,4.038,0,5.571
		c0.769,0.77,1.779,1.161,2.789,1.161c1.011,0,2.02-0.391,2.788-1.161l12.819-12.816C99.688,168.103,99.688,165.607,98.144,164.075z
		"/>
	<path d="M93.87,150.235c-1.54-1.54-4.038-1.54-5.578,0l-23.898,23.901c-1.544,1.541-1.544,4.037,0,5.578
		c0.767,0.772,1.773,1.152,2.788,1.152c1.005,0,2.013-0.38,2.789-1.152l23.9-23.904C95.41,154.272,95.41,151.767,93.87,150.235z"/>
	<path d="M211.924,164.075c-1.532-1.546-4.027-1.546-5.568,0c-1.543,1.534-1.543,4.028,0,5.571l12.816,12.816
		c0.771,0.77,1.778,1.161,2.788,1.161c1.015,0,2.021-0.391,2.791-1.161c1.542-1.533,1.542-4.033,0-5.571L211.924,164.075z"/>
	<path d="M240.11,174.136l-23.902-23.901c-1.542-1.54-4.038-1.54-5.583,0c-1.539,1.532-1.539,4.037,0,5.575l23.902,23.904
		c0.778,0.772,1.786,1.152,2.79,1.152c1.016,0,2.019-0.38,2.793-1.152C241.648,178.173,241.648,175.677,240.11,174.136z"/>
</g>
</svg>
