<?xml version="1.0" encoding="utf-8"?>
<!-- Generator: Adobe Illustrator 15.0.2, SVG Export Plug-In . SVG Version: 6.00 Build 0)  -->
<!DOCTYPE svg PUBLIC "-//W3C//DTD SVG 1.1//EN" "http://www.w3.org/Graphics/SVG/1.1/DTD/svg11.dtd">
<svg version="1.1" id="Layer_1" xmlns="http://www.w3.org/2000/svg" xmlns:xlink="http://www.w3.org/1999/xlink" x="0px" y="0px"
	 width="480px" height="800px" viewBox="0 0 480 800" enable-background="new 0 0 480 800" xml:space="preserve">
<rect fill="#34313C" width="480" height="800"/>
<g>
	<g>
		<circle fill="#0C060D" cx="239.789" cy="41.582" r="6.528"/>
	</g>
	<g>
		<path fill="#0C060D" d="M239.789,55.242c-0.498,0-0.904-0.405-0.904-0.904v-4.664c0-0.499,0.406-0.904,0.904-0.904
			c0.5,0,0.906,0.405,0.906,0.904v4.664C240.695,54.837,240.289,55.242,239.789,55.242z"/>
	</g>
	<g>
		<path fill="#0C060D" d="M239.789,34.395c-0.498,0-0.904-0.405-0.904-0.904v-4.664c0-0.5,0.406-0.904,0.904-0.904
			c0.5,0,0.906,0.404,0.906,0.904v4.664C240.695,33.989,240.289,34.395,239.789,34.395z"/>
	</g>
	<g>
		<path fill="#0C060D" d="M231.698,42.486h-4.664c-0.499,0-0.903-0.405-0.903-0.904s0.404-0.904,0.903-0.904h4.664
			c0.499,0,0.903,0.405,0.903,0.904S232.197,42.486,231.698,42.486z"/>
	</g>
	<g>
		<path fill="#0C060D" d="M252.546,42.486h-4.665c-0.498,0-0.903-0.405-0.903-0.904s0.403-0.904,0.903-0.904h4.665
			c0.499,0,0.903,0.405,0.903,0.904S253.045,42.486,252.546,42.486z"/>
	</g>
	<g>
		<path fill="#0C060D" d="M229.752,52.523c-0.231,0-0.463-0.087-0.64-0.264c-0.354-0.353-0.354-0.925,0-1.277l3.671-3.673
			c0.354-0.353,0.925-0.353,1.278,0c0.353,0.354,0.353,0.927,0,1.28l-3.671,3.67C230.213,52.437,229.983,52.523,229.752,52.523z"/>
	</g>
	<g>
		<path fill="#0C060D" d="M246.158,36.117c-0.23,0-0.463-0.088-0.639-0.264c-0.354-0.353-0.354-0.925,0-1.278l3.67-3.67
			c0.354-0.354,0.926-0.354,1.278,0c0.353,0.353,0.353,0.925,0,1.278l-3.671,3.671C246.62,36.029,246.39,36.117,246.158,36.117z"/>
	</g>
	<g>
		<path fill="#0C060D" d="M233.422,36.118c-0.232,0-0.462-0.089-0.639-0.265l-3.671-3.671c-0.354-0.353-0.354-0.925,0-1.278
			c0.353-0.353,0.925-0.353,1.278,0l3.671,3.671c0.353,0.353,0.353,0.924,0,1.278C233.885,36.029,233.652,36.118,233.422,36.118z"/>
	</g>
	<g>
		<path fill="#0C060D" d="M249.828,52.523c-0.23,0-0.461-0.087-0.639-0.264l-3.67-3.67c-0.354-0.354-0.354-0.926,0-1.28
			c0.353-0.353,0.924-0.353,1.277,0l3.671,3.673c0.353,0.353,0.353,0.925,0,1.277C250.291,52.437,250.06,52.523,249.828,52.523z"/>
	</g>
</g>
<path fill="#0C060D" d="M142.123,51.463c-5.636,0-10.205-4.569-10.205-10.204c0-5.636,4.569-10.205,10.205-10.205
	c0.641,0,1.268,0.067,1.876,0.18c-0.112,0.49-0.177,0.998-0.177,1.521c0,3.757,3.045,6.804,6.803,6.804
	c0.523,0,1.03-0.065,1.522-0.179c0.111,0.609,0.179,1.236,0.179,1.879C152.327,46.894,147.758,51.463,142.123,51.463z
	 M140.602,34.632c-3.025,0.691-5.282,3.393-5.282,6.627c0,3.757,3.045,6.803,6.803,6.803c3.233,0,5.935-2.258,6.625-5.282
	C144.621,42.011,141.37,38.76,140.602,34.632z"/>
<path fill="#0C060D" d="M335.11,31.176c-6.283,0-11.376,5.093-11.376,11.376s5.093,11.376,11.376,11.376
	c6.281,0,11.376-5.093,11.376-11.376S341.392,31.176,335.11,31.176z M335.11,51.084c-4.714,0-8.532-3.82-8.532-8.532
	s3.818-8.532,8.532-8.532c4.71,0,8.531,3.82,8.531,8.532S339.82,51.084,335.11,51.084z"/>
<text transform="matrix(1 0 0 1 65.6128 169.6665)"><tspan x="0" y="0" fill="#E7B43A" font-family="'GeosansLight'" font-size="58">Your Alarm Has</tspan><tspan x="65.655" y="69.6" fill="#E7B43A" font-family="'GeosansLight'" font-size="58">Been Set </tspan></text>
<text transform="matrix(1 0 0 1 93.0894 613.666)"><tspan x="0" y="0" fill="#E7B43A" font-family="'GeosansLight'" font-size="58">Have A Nice</tspan><tspan x="81.866" y="69.601" fill="#E7B43A" font-family="'GeosansLight'" font-size="58">Nap! </tspan></text>
<path fill="#FFFFFF" d="M113.109,502.275c2.044-0.035,84.086-1.524,84.086-1.524l68.001,0.513c3.521,0.024,7.968,0.193,12.382,0.007
	c0.25-0.032,23.655,0.285,30.983-0.999c7.318-1.276,33.46-49,33.46-49l33.419,46.347c7.135,9.714,16.15,15.127,24.361,9.097
	c8.256-6.06,5.928-16.372-1.207-26.091c0,0-40.115-61.37-40.881-62.182c-6.605-12.856-18.935-11.063-23.531-7.43
	c0,0-40.695,52.845-40.229,48.942l9.936-55.576c0.099-0.072,8.737,0.794,8.885,0.684l64.324,5.729
	c11.768-0.772,10.486-13.742,8.081-18.72c-2.406-4.979-7.213-5.333-15.427-6.937l-71.255-8.909
	c-17.131,0-21.185,14.511-21.181,14.904c0,0-22.9,65.322-22.812,66.965l-61.394,0.467c0,0-29.129,0.98-33.227,9.953
	c-1.625,3.197-3.7,6.062-4.166,10.721c0,0-0.972,1.65-3.241,1.82c-11.776-0.589-25.947,0.638-38.4-0.248
	c0,0-9.424-2.865-32.057-12.212c-8.116-0.278-14.687,15.674-2.381,21.676C79.64,490.269,104.897,500.624,113.109,502.275z"/>
<path fill="#FFFFFF" d="M152.468,479.672c0.045-0.007,0.072-0.028,0.115-0.028c5.929-11.224,4.158-25.419-5.307-34.883
	c-11.602-11.602-30.406-11.622-42.033,0c-7.801,7.799-10.348,18.769-7.747,28.662c11.515,4.457,16.566,5.999,16.566,5.999
	C126.521,480.3,140.691,479.073,152.468,479.672z"/>
<path fill="#FFFFFF" d="M83.243,467.788c1.683,0.656,12.387,4.799,12.387,4.799s-1.352-6.563,0-11.831
	C96.326,460.59,86.252,457.326,83.243,467.788z"/>
<path fill="#FFFFFF" d="M157.627,401.572h21.91l-1.084,4.738l-20.067,21.415h15.739l-1.062,4.611h-22.496l1.106-5.366l19.335-20.871
	h-14.312L157.627,401.572z"/>
<path fill="#FFFFFF" d="M193.82,381.912h18.683l-0.921,4.043l-17.112,18.256h13.423l-0.907,3.934h-19.183l0.944-4.578l16.48-17.798
	h-12.2L193.82,381.912z"/>
<path fill="#FFFFFF" d="M182.087,351.175h16.856l-0.831,3.642l-15.438,16.476h12.112l-0.817,3.544h-17.308l0.849-4.128
	l14.873-16.055h-11.009L182.087,351.175z"/>
<path fill="#FFFFFF" d="M207.966,329.261h13.387l-0.662,2.897l-12.263,13.084h9.619l-0.651,2.818h-13.744l0.676-3.285l11.81-12.75
	h-8.743L207.966,329.261z"/>
<path fill="#FFFFFF" d="M232.424,318.085h10.861l-0.537,2.35l-9.949,10.616h7.801l-0.525,2.287h-11.153l0.551-2.663l9.583-10.345
	h-7.097L232.424,318.085z"/>
</svg>
