<?xml version="1.0" encoding="utf-8"?>
<!-- Generator: Adobe Illustrator 15.0.2, SVG Export Plug-In . SVG Version: 6.00 Build 0)  -->
<!DOCTYPE svg PUBLIC "-//W3C//DTD SVG 1.1//EN" "http://www.w3.org/Graphics/SVG/1.1/DTD/svg11.dtd">
<svg version="1.1" id="Layer_1" xmlns="http://www.w3.org/2000/svg" xmlns:xlink="http://www.w3.org/1999/xlink" x="0px" y="0px"
	 width="28.8px" height="28.8px" viewBox="0 0 28.8 28.8" enable-background="new 0 0 28.8 28.8" xml:space="preserve">
<path fill="#777777" d="M14.401,28.798c7.953,0,14.399-6.445,14.399-14.399C28.8,6.446,22.354,0,14.401,0C6.447,0,0,6.446,0,14.399
	C0,22.353,6.447,28.798,14.401,28.798"/>
<path fill="#FFFFFF" d="M21.625,10.625c-0.531,0.235-1.102,0.396-1.701,0.467c0.613-0.366,1.084-0.946,1.305-1.637
	c-0.572,0.34-1.206,0.584-1.88,0.717c-0.539-0.573-1.308-0.934-2.16-0.934c-1.635,0-2.958,1.325-2.958,2.959
	c0,0.232,0.025,0.457,0.076,0.674c-2.459-0.123-4.639-1.301-6.101-3.092c-0.255,0.438-0.4,0.946-0.4,1.489
	c0,1.024,0.523,1.933,1.316,2.462c-0.484-0.016-0.942-0.148-1.341-0.369v0.037c0,1.434,1.021,2.63,2.375,2.902
	c-0.249,0.068-0.51,0.104-0.78,0.104c-0.191,0-0.376-0.021-0.557-0.055c0.376,1.178,1.469,2.03,2.764,2.058
	c-1.012,0.793-2.289,1.266-3.675,1.266c-0.239,0-0.475-0.012-0.707-0.041c1.31,0.84,2.865,1.33,4.537,1.33
	c5.445,0,8.421-4.51,8.421-8.419c0-0.129-0.003-0.256-0.011-0.383C20.727,11.74,21.229,11.219,21.625,10.625"/>
</svg>
